<?xml version="1.0" encoding="utf-8"?>
<!-- Generator: Adobe Illustrator 21.0.0, SVG Export Plug-In . SVG Version: 6.00 Build 0)  -->
<svg version="1.1" id="Layer_1" xmlns="http://www.w3.org/2000/svg" xmlns:xlink="http://www.w3.org/1999/xlink" x="0px" y="0px"
	 viewBox="0 0 45 37" style="enable-background:new 0 0 45 37;" xml:space="preserve">
<style type="text/css">
	.st0{opacity:0.8;}
</style>
<g id="Symbols" class="st0">
	<g id="Testimonials_x2F_Testimonials-4" transform="translate(-160.000000, -117.000000)">
		<g id="Testimonials">
			<path id="Combined-Shape" d="M168.4,125.5c-2.2,2.7-3.2,5.4-3.2,8.2c0,1.2,0.1,2.2,0.4,3c1.6-1.3,3.4-1.9,5.3-1.9
				c2.6,0,4.8,0.8,6.5,2.5s2.7,3.9,2.7,6.7c0,1.7-0.4,3.3-1.3,4.7s-2,2.5-3.4,3.3s-2.9,1.2-4.6,1.2c-3.7,0-6.5-1.5-8.5-4.6
				c-1.6-2.5-2.5-5.7-2.5-9.5c0-4.8,1.2-9.2,3.7-13c2.5-3.8,6.2-6.9,11.1-9.2l1.3,2.6C173.2,120.9,170.6,122.8,168.4,125.5z
				 M192.9,125.5c-2.2,2.7-3.2,5.4-3.2,8.2c0,1.2,0.1,2.2,0.4,3c1.6-1.3,3.4-1.9,5.3-1.9c2.6,0,4.8,0.8,6.6,2.5s2.6,3.9,2.6,6.7
				c0,2.6-0.9,4.8-2.7,6.6s-4,2.6-6.5,2.6c-3.7,0-6.5-1.5-8.5-4.6c-1.6-2.5-2.5-5.7-2.5-9.5c0-4.8,1.2-9.2,3.7-13
				c2.5-3.8,6.2-6.9,11.1-9.2l1.3,2.6C197.6,120.9,195.1,122.8,192.9,125.5z"/>
		</g>
	</g>
</g>
</svg>
