<?xml version="1.0" encoding="utf-8"?>
<!-- Generator: Adobe Illustrator 21.0.0, SVG Export Plug-In . SVG Version: 6.00 Build 0)  -->
<svg version="1.1" id="Layer_1" xmlns="http://www.w3.org/2000/svg" xmlns:xlink="http://www.w3.org/1999/xlink" x="0px" y="0px"
	 viewBox="0 0 62 66" style="enable-background:new 0 0 62 66;" xml:space="preserve">
<style type="text/css">
	.st0{fill:#FFFFFF;stroke:#3D6CD2;stroke-width:2;}
	.st1{fill:#E1F1FF;stroke:#3D6CD2;stroke-width:2;}
</style>
<title>Icon</title>
<desc>Created with Sketch.</desc>
<g id="Symbols">
	<g id="Feature_x2F_Feature-6" transform="translate(-306.000000, -248.000000)">
		<g id="Group-2">
			<g id="Icon" transform="translate(307.000000, 249.000000)">
				<path id="Rectangle-201" class="st0" d="M9,10.2h41.9c5,0,9,4,9,9l0,0c0,5-4,9-9,9H9c-5,0-9-4-9-9l0,0C0,14.2,4,10.2,9,10.2z"/>
				<path id="Rectangle-202" class="st1" d="M5.3,22.1c0.5-3.3,3.7-5.9,7-5.9h35.9c3.3,0,6.5,2.6,7,5.9l3.1,18.4
					c2.2,13-6.7,23.6-19.9,23.6H22.3C9.1,64,0.1,53.4,2.3,40.4L5.3,22.1z"/>
				<ellipse id="Oval-40" class="st0" cx="25.4" cy="4.5" rx="4.5" ry="4.5"/>
				<ellipse id="Oval-40-Copy" class="st0" cx="34.4" cy="4.5" rx="4.5" ry="4.5"/>
			</g>
		</g>
	</g>
</g>
</svg>
