<?xml version="1.0" encoding="utf-8"?>
<!-- Generator: Adobe Illustrator 21.0.0, SVG Export Plug-In . SVG Version: 6.00 Build 0)  -->
<svg version="1.1" id="Layer_1" xmlns="http://www.w3.org/2000/svg" xmlns:xlink="http://www.w3.org/1999/xlink" x="0px" y="0px"
	 viewBox="0 0 48 66" style="enable-background:new 0 0 48 66;" xml:space="preserve">
<style type="text/css">
	.st0{fill:#E6F7F3;stroke:#1FBD70;stroke-width:2;stroke-linecap:round;stroke-linejoin:round;}
</style>
<title>Icon</title>
<desc>Created with Sketch.</desc>
<g id="Symbols">
	<g id="Feature_x2F_Feature-6" transform="translate(-697.000000, -248.000000)">
		<g id="Group-2">
			<g id="Icon" transform="translate(698.000000, 249.000000)">
				<path id="Combined-Shape" class="st0" d="M22.7,64c0.1,0,0.2,0,0.3,0c12.3,0,22.2-10,22.2-22.2C45.2,8.2,12.7,0,12.7,0
					s3.9,9.9-1.2,19.2S0,30.5,0,41.8C0,54,10,64,22.2,64c0.1,0,0.1,0,0.2,0c-5.6-0.1-8.7-6.3-8.7-14.1c0-7.8,7.2-14.1,8.8-14.1
					s9.1,6.3,9.1,14.1C31.6,57.6,28.3,63.9,22.7,64z"/>
			</g>
		</g>
	</g>
</g>
</svg>
