<?xml version="1.0" encoding="utf-8"?>
<!-- Generator: Adobe Illustrator 21.0.0, SVG Export Plug-In . SVG Version: 6.00 Build 0)  -->
<svg version="1.1" id="Layer_1" xmlns="http://www.w3.org/2000/svg" xmlns:xlink="http://www.w3.org/1999/xlink" x="0px" y="0px"
	 viewBox="0 0 19 16" style="enable-background:new 0 0 19 16;" xml:space="preserve">
<style type="text/css">
	.st0{fill:#5AA8DF;}
</style>
<title>Shape</title>
<desc>Created with Sketch.</desc>
<g id="Symbols">
	<g id="Testimonials_x2F_Testimonials-2" transform="translate(-463.000000, -324.000000)">
		<g id="Testimonials">
			<g id="Item" transform="translate(149.000000, 296.000000)">
				<path id="Shape" class="st0" d="M329.7,29.3c-0.7-0.8-1.7-1.3-2.8-1.3c-2.1,0-3.8,1.8-3.8,4c0,0.3,0,0.6,0.1,0.9
					c-3.2-0.2-6-1.9-7.9-4.4c-0.3,0.6-0.5,1.3-0.5,2c0,1.4,0.7,2.7,1.7,3.4c-0.6,0-1.2-0.2-1.7-0.5c0,0,0,0,0,0.1c0,2,1.3,3.6,3.1,4
					c-0.3,0.1-0.7,0.1-1,0.1c-0.2,0-0.5,0-0.7-0.1c0.5,1.6,1.9,2.8,3.6,2.9c-1.3,1.1-3,1.7-4.8,1.7c-0.3,0-0.6,0-0.9-0.1
					c1.7,1.2,3.7,1.8,5.9,1.8c7,0,10.9-6.1,10.9-11.4c0-0.2,0-0.3,0-0.5c0.7-0.6,1.4-1.3,1.9-2.1c-0.7,0.3-1.4,0.5-2.2,0.6
					c0.8-0.5,1.4-1.3,1.7-2.2C331.4,28.8,330.6,29.2,329.7,29.3L329.7,29.3z"/>
			</g>
		</g>
	</g>
</g>
</svg>
