<?xml version="1.0" encoding="utf-8"?>
<!-- Generator: Adobe Illustrator 21.0.0, SVG Export Plug-In . SVG Version: 6.00 Build 0)  -->
<svg version="1.1" id="Layer_1" xmlns="http://www.w3.org/2000/svg" xmlns:xlink="http://www.w3.org/1999/xlink" x="0px" y="0px"
	 viewBox="0 0 22.1 17.9" style="enable-background:new 0 0 22.1 17.9;" xml:space="preserve">
<style type="text/css">
	.st0{fill:#1da1f2;}
</style>
<path id="Twitter" class="st0" d="M19.8,4.5c0,0.1,0,0.3,0,0.6c0,1.2-0.2,2.4-0.5,3.6s-0.9,2.4-1.6,3.5c-0.7,1.1-1.6,2.1-2.6,2.9
	s-2.2,1.5-3.6,2c-1.4,0.5-2.9,0.8-4.5,0.8c-2.5,0-4.8-0.7-6.9-2c0.3,0,0.7,0.1,1.1,0.1c2.1,0,4-0.6,5.6-1.9c-1,0-1.9-0.3-2.6-0.9
	c-0.8-0.6-1.3-1.3-1.6-2.2c0.3,0,0.6,0.1,0.9,0.1c0.4,0,0.8-0.1,1.2-0.2c-1-0.2-1.9-0.7-2.6-1.6c-0.7-0.8-1-1.8-1-2.9V6.3
	c0.6,0.4,1.3,0.5,2,0.6C2.3,6.5,1.8,5.9,1.5,5.3S0.9,3.9,0.9,3.1c0-0.8,0.2-1.6,0.6-2.3C2.7,2.2,4,3.3,5.7,4.2S9,5.5,10.9,5.6
	c-0.1-0.4-0.1-0.7-0.1-1c0-1.3,0.4-2.3,1.3-3.2C13,0.4,14,0,15.3,0c1.3,0,2.4,0.5,3.3,1.4c1-0.2,2-0.6,2.9-1.1c-0.3,1.1-1,1.9-2,2.5
	c0.9-0.1,1.7-0.3,2.6-0.7C21.4,3,20.7,3.8,19.8,4.5z"/>
</svg>
