<?xml version="1.0" encoding="utf-8"?>
<!-- Generator: Adobe Illustrator 21.0.0, SVG Export Plug-In . SVG Version: 6.00 Build 0)  -->
<svg version="1.1" id="aranja" xmlns="http://www.w3.org/2000/svg" xmlns:xlink="http://www.w3.org/1999/xlink" x="0px" y="0px"
	 viewBox="0 0 253.9 232.6" style="enable-background:new 0 0 253.9 232.6;" xml:space="preserve">
<path d="M90.7,44.3C90.2,19.7,70.1,0,45.4,0C20.3,0,0,20.3,0,45.4s20.3,45.4,45.4,45.4c6.7,0,13-1.4,18.7-4V65.7
	C59.2,70.2,52.6,73,45.4,73c-15.2,0-27.6-12.4-27.6-27.6s12.4-27.6,27.6-27.6c14.8,0,27,11.8,27.6,26.5l0,0v37.1v9.4h17.8L90.7,44.3
	L90.7,44.3z"/>
<path d="M108.6,44.3L108.6,44.3v46.5h17.8V45.4c0-15.2,12.4-27.6,27.6-27.6V0C129.2,0,109.2,19.7,108.6,44.3"/>
<path d="M253.6,44.3C253,19.7,232.9,0,208.2,0c-25.1,0-45.4,20.3-45.4,45.4s20.3,45.4,45.4,45.4c6.7,0,13-1.4,18.7-4V65.7
	c-4.9,4.5-11.5,7.3-18.7,7.3c-15.2,0-27.6-12.4-27.6-27.6s12.4-27.6,27.6-27.6c14.8,0,27,11.8,27.6,26.5l0,0v1.1l0,0l0,0v36v9.4
	h17.8L253.6,44.3L253.6,44.3z"/>
<path d="M45.7,114.9c-24.7,0-44.8,19.7-45.4,44.3l0,0v1.1l0,0l0,0v45.4h17.8v-45.4c0-15.2,12.4-27.6,27.6-27.6s27.6,12.4,27.6,27.6
	l0,0v45.4h17.8v-45.4l0,0C91.1,135.2,70.8,114.9,45.7,114.9"/>
<path d="M136,114.9L136,114.9h-26.7v17.9h18.2v8.8v36.7c0,20.1-16.4,36.5-36.4,36.5H73.3v17.8h17.8c29.9,0,54.3-24.4,54.3-54.3
	v-63.4H136z"/>
<path d="M253.9,159.2c-0.6-24.6-20.7-44.3-45.4-44.3c-25.1,0-45.4,20.3-45.4,45.4s20.3,45.4,45.4,45.4c6.7,0,13-1.4,18.7-4v-21.1
	c-4.9,4.5-11.5,7.3-18.7,7.3c-15.2,0-27.6-12.4-27.6-27.6c0-15.2,12.4-27.6,27.6-27.6c14.8,0,27,11.8,27.6,26.5l0,0v46.5h17.8
	L253.9,159.2L253.9,159.2z"/>
</svg>
