<?xml version="1.0" encoding="utf-8"?>
<!-- Generator: Adobe Illustrator 21.0.0, SVG Export Plug-In . SVG Version: 6.00 Build 0)  -->
<svg version="1.1" id="Layer_1" xmlns="http://www.w3.org/2000/svg" xmlns:xlink="http://www.w3.org/1999/xlink" x="0px" y="0px"
	 viewBox="0 0 220.7 196.3" style="enable-background:new 0 0 220.7 196.3;" xml:space="preserve">
<style type="text/css">
	.st0{fill:#FFFFFF;}
</style>
<path d="M181.4,63.6c-2.3-0.8-4.7-1.6-7.1-2.2c0.4-1.6,0.8-3.2,1.1-4.8c5.4-26.1,1.9-47.1-10.1-54c-11.5-6.6-30.3,0.3-49.3,16.8
	c-1.9,1.6-3.7,3.3-5.5,5c-1.2-1.1-2.4-2.3-3.7-3.4C86.8,3.3,66.9-4.2,54.9,2.8C43.4,9.4,40,29.2,44.8,53.9c0.5,2.4,1,4.9,1.6,7.3
	c-2.8,0.8-5.6,1.7-8.2,2.6C14.9,72,0,84.7,0,98c0,13.7,16,27.4,40.3,35.7c2,0.7,4,1.3,6,1.9c-0.7,2.6-1.2,5.2-1.7,7.9
	c-4.6,24.3-1,43.6,10.5,50.2c11.8,6.8,31.7-0.2,51.1-17.1c1.5-1.3,3.1-2.8,4.6-4.2c1.9,1.9,3.9,3.7,6,5.4
	c18.8,16.1,37.3,22.7,48.7,16c11.8-6.9,15.7-27.6,10.7-52.8c-0.4-1.9-0.8-3.9-1.3-5.9c1.4-0.4,2.8-0.8,4.1-1.3
	c25.3-8.4,41.8-21.9,41.8-35.8C220.7,84.7,205.3,71.8,181.4,63.6L181.4,63.6z"/>
<path class="st0" d="M175.9,124.8c-1.2,0.4-2.4,0.8-3.7,1.2c-2.8-8.8-6.6-18.2-11.2-28c4.4-9.5,8-18.8,10.7-27.5
	c2.3,0.7,4.4,1.3,6.6,2.1c20.4,7,32.9,17.4,32.9,25.4C211.2,106.5,197.8,117.6,175.9,124.8L175.9,124.8z M166.9,142.8
	c2.2,11.2,2.5,21.2,1.1,29.1c-1.3,7.1-4,11.8-7.2,13.7c-7,4-21.8-1.2-37.9-15c-1.8-1.6-3.7-3.3-5.5-5.1c6.2-6.8,12.4-14.7,18.5-23.5
	c10.7-0.9,20.7-2.5,29.9-4.6C166.1,139.2,166.5,141,166.9,142.8L166.9,142.8z M75.2,184.9c-6.8,2.4-12.2,2.5-15.5,0.6
	c-7-4-9.9-19.5-5.9-40.3c0.5-2.5,1-4.9,1.6-7.3c9,2,19,3.4,29.7,4.3c6.1,8.6,12.5,16.5,18.9,23.4c-1.4,1.3-2.8,2.6-4.2,3.9
	C91.4,176.9,82.8,182.2,75.2,184.9L75.2,184.9z M43.4,124.8c-10.8-3.7-19.6-8.5-25.7-13.7c-5.5-4.7-8.2-9.3-8.2-13.1
	c0-8,12-18.3,32-25.2c2.5-0.9,5-1.7,7.6-2.4c2.8,9,6.4,18.4,10.8,27.9c-4.4,9.6-8.1,19.2-10.9,28.3C47,125.9,45.2,125.4,43.4,124.8z
	 M54.1,52.1c-4.1-21.2-1.4-37.2,5.5-41.2C67,6.7,83.3,12.8,100.5,28c1.1,1,2.2,2,3.3,3.1C97.4,38,91.1,45.8,85,54.4
	c-10.4,1-20.3,2.5-29.4,4.6C55,56.7,54.5,54.4,54.1,52.1L54.1,52.1z M149.2,75.6c-2.2-3.7-4.4-7.4-6.7-11c7,0.9,13.8,2.1,20.1,3.5
	c-1.9,6.1-4.3,12.5-7.1,19C153.6,83.3,151.4,79.4,149.2,75.6L149.2,75.6z M110.4,37.8c4.3,4.7,8.7,10,13,15.7
	c-8.7-0.4-17.4-0.4-26.1,0C101.6,47.8,106,42.6,110.4,37.8L110.4,37.8z M71.4,75.7c-2.2,3.8-4.2,7.6-6.2,11.4
	c-2.7-6.5-5.1-12.9-7-19.1c6.3-1.4,13-2.6,20-3.4C75.8,68.2,73.5,71.9,71.4,75.7z M78.3,132c-7.2-0.8-14-1.9-20.3-3.3
	c1.9-6.3,4.3-12.8,7.2-19.5c2,3.9,4.1,7.7,6.3,11.4C73.6,124.5,75.9,128.3,78.3,132z M110.7,158.8c-4.5-4.8-8.9-10.2-13.3-15.9
	c4.2,0.2,8.5,0.2,12.9,0.2c4.5,0,8.9-0.1,13.3-0.3C119.3,148.7,115,154,110.7,158.8z M155.7,108.9c2.9,6.7,5.4,13.2,7.4,19.4
	c-6.4,1.5-13.3,2.6-20.6,3.5c2.3-3.7,4.6-7.4,6.8-11.2C151.5,116.8,153.6,112.9,155.7,108.9L155.7,108.9z M141.1,115.9
	c-3.3,5.8-6.9,11.5-10.6,17.1c-6.5,0.5-13.3,0.7-20.2,0.7c-6.9,0-13.5-0.2-20-0.6c-3.8-5.6-7.4-11.3-10.8-17.1
	c-3.4-5.8-6.5-11.7-9.4-17.8c2.9-6,6-12,9.4-17.8v0c3.3-5.8,6.9-11.5,10.7-17c6.6-0.5,13.3-0.8,20.1-0.8c6.8,0,13.6,0.3,20.1,0.8
	c3.7,5.5,7.3,11.2,10.6,17c3.4,5.8,6.5,11.7,9.5,17.7C147.7,104.1,144.5,110.1,141.1,115.9L141.1,115.9z M160.6,10.7
	c7.4,4.3,10.3,21.4,5.6,44c-0.3,1.5-0.6,2.9-1,4.4c-9.2-2.1-19.1-3.7-29.5-4.7c-6.1-8.6-12.3-16.5-18.7-23.3
	c1.7-1.6,3.3-3.1,5.1-4.7C138.4,12.3,153.6,6.7,160.6,10.7L160.6,10.7z"/>
<path d="M110.3,78.3c10.9,0,19.7,8.8,19.7,19.7c0,10.9-8.8,19.7-19.7,19.7c-10.9,0-19.7-8.8-19.7-19.7
	C90.6,87.1,99.4,78.3,110.3,78.3"/>
</svg>
